<svg width="66" height="22" viewBox="0 0 66 22" fill="none" xmlns="http://www.w3.org/2000/svg">
<g clip-path="url(#clip0_1_10900)">
<g clip-path="url(#clip1_1_10900)">
<path fill-rule="evenodd" clip-rule="evenodd" d="M32.88 8.75969C34.1184 7.04127 35.4052 6.18207 37.501 6.18207C39.4878 6.18207 41.1481 6.90269 42.4953 8.34394C43.829 9.79909 44.4958 11.6006 44.4958 13.7486C44.4958 15.9105 43.829 17.7121 42.4953 19.1672C41.1481 20.6223 39.4878 21.3428 37.501 21.3428C35.4052 21.3428 34.1184 20.8779 32.88 19.1456V20.9964H29.75V0.555664H32.88V8.75969ZM32.88 13.7486C32.88 15.0374 33.3019 16.1184 34.1456 16.9775C34.9894 17.8367 35.6501 18.2664 36.8886 18.2664C38.1269 18.2664 39.1748 17.8367 40.0185 16.9775C40.8487 16.1184 41.2706 15.0374 41.2706 13.7486C41.2706 12.4598 40.8487 11.3927 40.0185 10.5335C39.1748 9.67435 38.1269 9.24472 36.8886 9.24472C35.6501 9.24472 34.9894 9.67435 34.1456 10.5335C33.3019 11.3927 32.88 12.4598 32.88 13.7486Z" fill="black"/>
<path fill-rule="evenodd" clip-rule="evenodd" d="M19.7058 6.18262C21.7879 6.18262 23.4482 6.64764 24.6866 8.36605V6.52908H27.8166V20.997H24.6866V18.752C23.4482 20.4704 21.7879 21.3296 19.7058 21.3434C17.7053 21.3434 16.0314 20.6229 14.7113 19.1678C13.3777 17.7127 12.7109 15.9111 12.7109 13.7492C12.7109 11.6012 13.3777 9.79964 14.7113 8.34449C16.0314 6.90324 17.7053 6.18262 19.7058 6.18262ZM17.1745 16.9781C18.0047 17.8373 19.0526 18.267 20.3182 18.267C21.5565 18.267 22.6044 17.8373 23.4346 16.9781C24.2647 16.119 24.6866 15.038 24.6866 13.7492C24.6866 12.4604 24.2647 11.3933 23.4346 10.5341C22.6044 9.6749 21.5565 9.24527 20.3182 9.24527C19.0526 9.24527 18.0047 9.6749 17.1745 10.5341C16.3308 11.3933 15.9089 12.4604 15.9089 13.7492C15.9089 15.038 16.3308 16.119 17.1745 16.9781Z" fill="black"/>
<path d="M49.3013 20.9964V0.555664H46.0234V20.9964H49.3013Z" fill="black"/>
<path fill-rule="evenodd" clip-rule="evenodd" d="M63.496 8.34449C64.9385 9.79964 65.6597 11.6151 65.6597 13.7908C65.6597 14.2481 65.6325 14.6361 65.578 14.9826H53.8065C54.0379 16.0497 54.5278 16.895 55.3035 17.5186C56.0792 18.1561 57.0046 18.4748 58.0797 18.4748C59.8624 18.4748 61.3458 17.6572 61.9854 16.3961H65.3739C64.8568 17.8789 63.945 19.0707 62.6249 19.9715C61.3049 20.8861 59.7807 21.3434 58.0525 21.3434C55.8886 21.3434 54.0923 20.6229 52.6498 19.1678C51.1937 17.7127 50.6016 15.9111 50.6016 13.7492C50.6016 11.6012 51.1937 9.79964 52.6498 8.34449C54.0923 6.90324 55.8886 6.18262 58.0525 6.18262C60.2298 6.18262 62.0398 6.90324 63.496 8.34449ZM62.2847 12.3634C62.0262 11.3517 61.5091 10.548 60.7333 9.95202C59.9577 9.35614 59.0731 9.05126 58.0525 9.05126C57.0318 9.05126 56.1336 9.35614 55.3715 9.95202C54.6095 10.5618 54.0923 11.3656 53.8337 12.3634H62.2847Z" fill="black"/>
<path d="M4.12656 20.2414C5.79465 21.2621 7.53082 21.6292 9.33509 21.3428C10.6764 21.1231 11.8481 20.5733 12.8423 19.6954L11.0088 16.9993C10.2895 17.7071 9.4468 18.113 8.48515 18.2359C7.50484 18.3636 6.58075 18.1538 5.68256 17.6043C4.62105 16.9548 3.94013 16.0369 3.65145 14.858C3.35113 13.6718 3.53621 12.524 4.18805 11.4193C4.83989 10.3146 5.74119 9.62116 6.91065 9.33431C8.06843 9.04036 9.18395 9.2217 10.2454 9.87119L11.3562 10.5508L12.9052 7.92566L11.7944 7.24601C9.92806 6.10401 8.01211 5.77242 6.04669 6.25124C4.0626 6.7348 2.53318 7.90075 1.44679 9.74195C0.353387 11.5951 0.0604598 13.5176 0.572663 15.5286C1.0732 17.5324 2.26016 19.0993 4.12656 20.2414Z" fill="black"/>
</g>
</g>
<defs>
<clipPath id="clip0_1_10900">
<rect width="66" height="22" fill="white"/>
</clipPath>
<clipPath id="clip1_1_10900">
<rect width="66" height="22" fill="white"/>
</clipPath>
</defs>
</svg>
