<svg width="102" height="14" viewBox="0 0 102 14" fill="none" xmlns="http://www.w3.org/2000/svg">
<g clip-path="url(#clip0_1_10924)">
<g clip-path="url(#clip1_1_10924)">
<path d="M21.9531 12.8348V1.16211H25.5159V12.8348H21.9531Z" fill="black"/>
<path d="M77.3087 1.16211V6.07868C77.3087 6.97408 77.2021 7.6904 77.0042 8.22764C76.8062 8.76489 76.5322 9.15556 76.182 9.39976C75.847 9.64396 75.4663 9.77427 75.0552 9.77427C74.6594 9.77427 74.3092 9.62771 74.0352 9.33469C73.7459 9.04167 73.6089 8.5858 73.6089 7.96716V1.16211H70.0156V7.96716C70.0156 8.99276 70.1526 9.88816 70.4419 10.6859C70.7312 11.4836 71.1727 12.1022 71.7665 12.5418C72.3603 12.9976 73.1368 13.2256 74.0808 13.2256C74.903 13.2256 75.649 12.9815 76.2885 12.493C76.6996 12.1837 77.065 11.7441 77.3696 11.2068L77.735 12.8511H80.8867V1.16211H77.3087Z" fill="black"/>
<path d="M42.3359 12.8348V1.16211H45.8988V12.8348H42.3359Z" fill="black"/>
<path d="M15.5069 0.802902C13.7559 0.558702 12.0507 1.60062 11.3046 3.31002C11.0153 2.52858 10.589 1.90994 9.99515 1.47038C9.40135 1.01454 8.62488 0.786622 7.68089 0.786622C7.01095 0.786622 6.3867 0.949423 5.82335 1.27502C5.26 1.60062 4.77278 2.10531 4.40736 2.82162L4.02671 1.17734H0.875V12.8501H4.43781V7.93354C4.43781 7.03815 4.54439 6.32182 4.74232 5.78458C4.94026 5.24734 5.21432 4.85663 5.56452 4.61243C5.9147 4.36822 6.28012 4.23798 6.69122 4.23798C7.08709 4.23798 7.43727 4.38451 7.71133 4.67755C8.00062 4.97058 8.13765 5.42642 8.13765 6.04506V12.8501H11.7309V7.93354C11.7309 6.5823 11.9289 5.62178 12.3095 5.06826C12.6902 4.51474 13.1926 4.23798 13.8016 4.23798C14.2127 4.23798 14.5629 4.38451 14.8522 4.67755C15.1262 4.97058 15.2633 5.42642 15.2633 6.04506V12.8501H18.8718V6.04506C18.9479 3.1635 17.6385 1.09594 15.5069 0.802902Z" fill="black"/>
<path d="M35.9243 0.80307C34.4017 0.591431 32.9097 1.34031 32.057 2.67527L31.7221 1.16122H28.5703V12.834H32.1331V7.91743C32.1331 6.56619 32.3311 5.60567 32.7117 5.05215C33.0924 4.49863 33.5948 4.22187 34.2038 4.22187C34.6149 4.22187 34.9651 4.36839 35.2544 4.66143C35.5284 4.95447 35.6655 5.41031 35.6655 6.02895V12.834H39.2739V6.02895C39.3653 3.16367 38.056 1.09611 35.9243 0.80307Z" fill="black"/>
<path d="M63.5928 0.803878C61.8417 0.559678 60.1365 1.6016 59.3904 3.311C59.1011 2.52956 58.6748 1.91092 58.081 1.47136C57.4872 1.01552 56.7107 0.787598 55.7667 0.787598C55.0968 0.787598 54.4726 0.950399 53.9092 1.276C53.3458 1.6016 52.8586 2.10629 52.4932 2.8226L52.1126 1.17832H48.9609V12.8512H52.5237V7.93453C52.5237 7.03913 52.6302 6.3228 52.8282 5.78556C53.0261 5.24832 53.3002 4.85761 53.6504 4.61341C53.9853 4.3692 54.3659 4.23896 54.777 4.23896C55.1729 4.23896 55.5231 4.38549 55.7972 4.67853C56.0865 4.97157 56.2235 5.4274 56.2235 6.04604V12.8512H59.8168V7.93453C59.8168 6.58328 60.0147 5.62276 60.3953 5.06925C60.776 4.51572 61.2784 4.23896 61.8874 4.23896C62.2985 4.23896 62.6487 4.38549 62.938 4.67853C63.2121 4.97157 63.3491 5.4274 63.3491 6.04604V12.8512H66.9576V6.04604C67.0337 3.16448 65.7396 1.09692 63.5928 0.803878Z" fill="black"/>
<path d="M98.5695 0.803878C96.8188 0.559678 95.1135 1.6016 94.3671 3.311C94.0782 2.52956 93.6517 1.91092 93.0581 1.47136C92.4636 1.01552 91.6878 0.787598 90.7431 0.787598C90.0731 0.787598 89.4492 0.950399 88.8858 1.276C88.3224 1.6016 87.8354 2.10629 87.4702 2.8226L87.089 1.17832H83.9375V12.8512H87.5004V7.93453C87.5004 7.03913 87.6071 6.3228 87.8052 5.78556C88.0025 5.24832 88.2771 4.85761 88.6272 4.61341C88.9622 4.3692 89.3426 4.23896 89.754 4.23896C90.1495 4.23896 90.4996 4.38549 90.7742 4.67853C91.063 4.97157 91.1999 5.4274 91.1999 6.04604V12.8512H94.8087V7.93453C94.8087 6.58328 95.0069 5.62276 95.3872 5.06925C95.7676 4.51572 96.2706 4.23896 96.8793 4.23896C97.2907 4.23896 97.6409 4.38549 97.9297 4.67853C98.2043 4.97157 98.3411 5.4274 98.3411 6.04604V12.8512H101.949V6.04604C102.01 3.16448 100.716 1.09692 98.5695 0.803878Z" fill="black"/>
</g>
</g>
<defs>
<clipPath id="clip0_1_10924">
<rect width="102" height="14" fill="white"/>
</clipPath>
<clipPath id="clip1_1_10924">
<rect width="102" height="14" fill="white"/>
</clipPath>
</defs>
</svg>
