<svg width="97" height="26" viewBox="0 0 97 26" fill="none" xmlns="http://www.w3.org/2000/svg">
<g clip-path="url(#clip0_1_10897)">
<g clip-path="url(#clip1_1_10897)">
<path fill-rule="evenodd" clip-rule="evenodd" d="M96.3294 0H0.614658V2.45992H93.9189V23.5334H3.02476L3.02555 14.6002H5.56484C6.25225 14.6002 6.83705 14.5008 7.31926 14.3019C7.80148 14.0925 8.19135 13.8203 8.48888 13.4854C8.7967 13.1504 9.01726 12.7683 9.15063 12.3391C9.29429 11.8994 9.36608 11.4545 9.36608 11.0043C9.36608 10.5437 9.29429 10.0988 9.15063 9.66963C9.01726 9.24042 8.7967 8.85832 8.48888 8.52333C8.19135 8.18835 7.80148 7.92141 7.31926 7.72252C6.83705 7.51316 6.25225 7.40847 5.56484 7.40847H0.609375V18.6201H0.613853V25.9932H96.3294V0ZM29.932 11.1771H27.5928C27.5517 10.8944 27.4594 10.638 27.3157 10.4077C27.1721 10.1669 26.9925 9.95751 26.7771 9.77954C26.5616 9.60156 26.3155 9.46551 26.0384 9.37128C25.7716 9.26658 25.4895 9.21427 25.192 9.21427C24.6482 9.21427 24.1865 9.32417 23.8068 9.54405C23.4273 9.75338 23.1195 10.0413 22.8834 10.4077C22.6477 10.7635 22.4731 11.1719 22.3603 11.6324C22.2578 12.093 22.2064 12.5693 22.2064 13.0613C22.2064 13.5325 22.2578 13.993 22.3603 14.4433C22.4731 14.8829 22.6477 15.2806 22.8834 15.6366C23.1195 15.9925 23.4273 16.2804 23.8068 16.5002C24.1865 16.7096 24.6482 16.8142 25.192 16.8142C25.9307 16.8142 26.5052 16.5839 26.9156 16.1233C27.3363 15.6627 27.5928 15.0557 27.6851 14.3019H30.0243C29.9628 15.0033 29.8038 15.6366 29.5472 16.2018C29.2907 16.7672 28.9523 17.2487 28.5316 17.6465C28.1109 18.0443 27.6184 18.3478 27.0542 18.5572C26.4899 18.7666 25.8692 18.8713 25.192 18.8713C24.3507 18.8713 23.5915 18.7247 22.9144 18.4316C22.2474 18.1281 21.6831 17.7145 21.2214 17.1911C20.7597 16.6677 20.4059 16.0554 20.1596 15.3539C19.9133 14.6421 19.7902 13.8779 19.7902 13.0613C19.7902 12.2239 19.9133 11.4493 20.1596 10.7374C20.4059 10.0151 20.7597 9.38696 21.2214 8.85312C21.6831 8.31921 22.2474 7.90048 22.9144 7.59689C23.5915 7.29332 24.3507 7.14153 25.192 7.14153C25.7973 7.14153 26.3667 7.2305 26.9003 7.40847C27.4439 7.58642 27.9263 7.84814 28.3469 8.19363C28.7778 8.52861 29.1317 8.94735 29.4088 9.44983C29.6857 9.95231 29.8602 10.5281 29.932 11.1771ZM3.02555 12.6845V9.32417H4.90308C5.1801 9.32417 5.44685 9.34512 5.70335 9.38696C5.95985 9.42887 6.18556 9.51262 6.38049 9.6382C6.57543 9.75338 6.72933 9.92087 6.84218 10.1407C6.9653 10.3606 7.02686 10.6484 7.02686 11.0043C7.02686 11.3602 6.9653 11.6481 6.84218 11.868C6.72933 12.0878 6.57543 12.2605 6.38049 12.3862C6.18556 12.5013 5.95985 12.5798 5.70335 12.6217C5.44685 12.6636 5.1801 12.6845 4.90308 12.6845H3.02555ZM12.5021 14.2861L13.9334 10.1721H13.9642L15.3492 14.2861H12.5021ZM12.733 7.40847L8.57773 18.6201H11.0093L11.8712 16.1233H15.9801L16.8112 18.6201H19.3198L15.2107 7.40847H12.733ZM31.6743 7.40847V18.6201H34.0905V15.0085L35.4755 13.5795L38.7842 18.6201H41.816L37.1069 11.8366L41.4006 7.40847H38.3841L34.0905 12.0564V7.40847H31.6743ZM42.7806 18.6201V7.40847H50.5062V9.48118H45.1969V12.0721H49.7983V13.9878H45.1969V18.6201H42.7806ZM51.9033 7.40847V18.6201H59.6751V16.5473H54.3195V7.40847H51.9033ZM61.0259 18.6201V7.40847H69.2439V9.48118H63.442V11.8837H68.7668V13.7994H63.442V16.5473H69.3671V18.6201H61.0259ZM71.005 7.40847V18.6201H79.3464V16.5473H73.4213V13.7994H78.7461V11.8837H73.4213V9.48118H79.2232V7.40847H71.005ZM83.416 18.6201V9.48118H80.1225V7.40847H89.1257V9.48118H85.8321V18.6201H83.416Z" fill="black"/>
</g>
</g>
<defs>
<clipPath id="clip0_1_10897">
<rect width="97" height="26" fill="white"/>
</clipPath>
<clipPath id="clip1_1_10897">
<rect width="97" height="26" fill="white"/>
</clipPath>
</defs>
</svg>
