<svg width="85" height="18" viewBox="0 0 85 18" fill="none" xmlns="http://www.w3.org/2000/svg">
<g clip-path="url(#clip0_1_10894)">
<g clip-path="url(#clip1_1_10894)">
<path fill-rule="evenodd" clip-rule="evenodd" d="M39.4665 17.9318C43.154 17.9318 45.2238 15.213 45.2238 11.5054C45.2238 7.79791 43.154 5.07906 39.4902 5.07906C37.8488 5.07906 36.3974 5.89472 35.6838 7.10585V0.0615234H33.3761V17.7341H35.6838V15.8803C36.3974 17.1162 37.8725 17.9318 39.4665 17.9318ZM39.2048 15.8309C36.9684 15.8309 35.5172 14.1008 35.5172 11.5054C35.5172 8.91018 36.9684 7.18 39.2048 7.18C41.4174 7.18 42.8686 8.91018 42.8686 11.5054C42.8686 14.1008 41.4174 15.8309 39.2048 15.8309ZM25.4834 15.8803C27.2439 15.8803 28.3858 15.0894 28.719 13.6805H31.0266C30.5984 16.2511 28.4335 17.9318 25.4834 17.9318C21.7721 17.9318 19.4643 14.8917 19.4643 11.4313C19.4643 7.94621 21.558 5.07906 25.2454 5.07906C28.9568 5.07906 30.9313 7.82262 30.9313 10.9864C30.9313 11.3077 30.9077 11.7031 30.8838 11.9256H21.7244C21.9148 14.2737 23.3897 15.8803 25.4834 15.8803ZM28.5999 10.1708C28.4573 8.26758 27.2202 7.00698 25.2454 7.00698C23.366 7.00698 22.1528 8.09452 21.7959 10.1708H28.5999ZM18.7605 5.27679V7.35301H17.0238C14.8351 7.35301 14.1214 9.37976 14.1214 12.0987V17.7341H11.8137V5.27679H14.1214V7.67434C14.6686 6.0183 15.6202 5.27679 17.3093 5.27679H18.7605ZM46.9314 9.35507C47.1216 6.90812 49.2628 5.07906 52.0938 5.07906C55.1866 5.07906 57.2327 6.93283 57.2327 9.7011V17.7341H54.9249V15.7073C54.354 17.0421 52.8315 17.9318 51.0234 17.9318C48.5728 17.9318 46.9551 16.3994 46.9551 14.1749C46.9551 11.7773 48.7869 10.2943 51.618 10.2943H54.1162C54.6632 10.2943 54.9249 9.99775 54.9249 9.55278C54.9249 8.04508 53.8782 7.00698 52.0225 7.00698C50.3572 7.00698 49.1438 8.09452 49.0725 9.35507H46.9314ZM49.239 14.1255C49.239 15.2624 50.1432 16.0287 51.4753 16.0287C53.6641 16.0287 54.9249 14.5704 54.9249 12.2717V11.9751H51.8321C50.262 11.9751 49.239 12.8154 49.239 14.1255ZM59.9059 17.7341H62.2136V10.9864C62.2136 8.81132 63.546 7.22943 65.4253 7.22943C67.1145 7.22943 68.2326 8.56414 68.2326 10.5415V17.7341H70.5403V10.0719C70.5403 7.10585 68.7798 5.07906 66.0676 5.07906C64.2834 5.07906 62.8559 5.91943 62.2136 7.4766V5.27679H59.9059V17.7341ZM84.6074 17.7341H81.7525L77.4463 11.7773L75.9475 13.2109V17.7341H73.6161V0.0615234H75.9475V10.2449L81.1575 5.27679H84.1551L79.1119 10.1461L84.6074 17.7341ZM8.26731 15.4604H0.0546875V17.7418H8.26731V15.4604Z" fill="black"/>
</g>
</g>
<defs>
<clipPath id="clip0_1_10894">
<rect width="85" height="18" fill="white"/>
</clipPath>
<clipPath id="clip1_1_10894">
<rect width="85" height="18" fill="white"/>
</clipPath>
</defs>
</svg>
