<svg width="64" height="64" viewBox="0 0 64 64" fill="none" xmlns="http://www.w3.org/2000/svg">
<path d="M32.0026 58.6663C46.7302 58.6663 58.6693 46.7273 58.6693 31.9997C58.6693 17.2721 46.7302 5.33301 32.0026 5.33301C17.275 5.33301 5.33594 17.2721 5.33594 31.9997C5.33594 46.7273 17.275 58.6663 32.0026 58.6663Z" stroke="black" stroke-width="1.5"/>
<path d="M32 18.667V28.0003M32 28.0003C29.7909 28.0003 28 29.7913 28 32.0003C28 34.2094 29.7909 36.0003 32 36.0003C34.2091 36.0003 36 34.2094 36 32.0003C36 29.7913 34.2091 28.0003 32 28.0003ZM36 36.0003L40 40.0003" stroke="black" stroke-width="1.5" stroke-linejoin="round"/>
</svg>
